<?xml version="1.0" standalone="no"?>
<!DOCTYPE svg PUBLIC "-//W3C//DTD SVG 1.1//EN" "http://www.w3.org/Graphics/SVG/1.1/DTD/svg11.dtd">
<svg xmlns="http://www.w3.org/2000/svg">
<metadata>Copyright (C) 2017 by original authors @ fontello.com</metadata>
<defs>
<font id="chinapower" horiz-adv-x="1000" >
<font-face font-family="chinapower" font-weight="400" font-stretch="normal" units-per-em="1000" ascent="850" descent="-150" />
<missing-glyph horiz-adv-x="1000" />
<glyph glyph-name="plus" unicode="&#xe800;" d="M550 400q30 0 30-50t-30-50l-210 0 0-210q0-30-50-30t-50 30l0 210-210 0q-30 0-30 50t30 50l210 0 0 210q0 30 50 30t50-30l0-210 210 0z" horiz-adv-x="580" />

<glyph glyph-name="close-x" unicode="&#xe801;" d="M493 457l-336 336-50 50-107-100 50-50 343-343-336-336-57-57 107-107 50 50 336 336 343-343 50-50 107 107-50 50-343 350 343 343 50 50-100 107-50-50-350-343z" horiz-adv-x="1000" />

<glyph glyph-name="arrow-right-full" unicode="&#xe802;" d="M0 347q0 26 18 43t43 17h642l-242 244q-19 18-19 44t19 42q17 19 42 19t44-19l390-390-390-391q-20-18-44-18t-42 18-19 44 19 43l242 242h-642q-25 0-43 18t-18 44z" horiz-adv-x="938" />

<glyph glyph-name="left" unicode="&#xe803;" d="M0 353l390 391q19 18 44 18 25 0 43-18t18-44-18-43l-243-243h642q25 0 43-18t18-43-18-43-43-18h-642l243-243q18-18 18-44t-18-43-43-18-44 18z" horiz-adv-x="938" />

<glyph glyph-name="up" unicode="&#xe804;" d="M0 354q0 26 18 44l391 390 390-390q18-18 18-44 0-26-18-43-18-18-43-18t-43 18l-243 243v-642q0-25-18-43t-43-18q-26 0-44 18t-17 43v642l-244-243q-18-18-43-18t-43 18q-18 17-18 43z" horiz-adv-x="817.4" />

<glyph glyph-name="copylink-share" unicode="&#xe805;" d="M456 250c-12 0-25 6-37 13-88 87-88 231 0 318l181 175c44 44 100 69 163 69s118-25 162-69c88-87 88-231 0-318l-81-82c-19-18-50-18-69 0-19 19-19 50 0 69l81 81c50 50 50 132 0 182-25 25-56 37-93 37s-69-12-94-37l-181-175c-50-50-50-132 0-182 18-18 18-50 0-68-7-13-19-13-32-13l0 0z m-175-350c-62 0-118 25-162 69-88 87-88 231 0 319l81 81c19 19 50 19 69 0 19-19 19-50 0-69l-81-81c-50-50-50-131 0-181 25-25 56-38 93-38s69 13 94 38l181 175c50 50 50 131 0 181-18 19-18 50 0 69 19 18 50 18 69 0 88-88 88-232 0-319l-181-175c-44-44-100-69-163-69z" horiz-adv-x="1000" />

<glyph glyph-name="email-contact" unicode="&#xe806;" d="M818 368l423-465h-1159l424 465 153-130 159 130z m417 459h-1147l571-489 576 489z m-358-406l417-459v817l-417-358z m-848 358v-817l418 459-418 358z" horiz-adv-x="1353" />

<glyph glyph-name="email-share" unicode="&#xe807;" d="M47 850l0 0 626-493 627 493h-1253z m-54-67l0 0 654-513c13-13 26-13 33-7 7 0 13 7 20 7l647 507v-834c0-26-20-40-34-40h-1273c-20 0-33 20-33 40l-14 840 0 0z" horiz-adv-x="1400" />

<glyph glyph-name="languages" unicode="&#xe808;" d="M925 175c-33 92-67 183-92 275 0 0-8 0-8 0-33-92-67-175-100-275h200z m-467 675v-92h284v-100h-100c-17-116-67-208-150-300 58-41 108-83 166-133 17 50 34 83 50 125 17 67 42 125 67 192 8 16 8 25 25 16 25 0 50 0 75 0 75-216 150-433 233-650-33 0-58 0-83 0-8 0-17 9-25 17-17 50-33 100-50 150-8 17-17 25-33 25-67 0-134 0-200 0-9 8-17 0-25-25-17-50-34-92-50-142-9-25-17-33-42-25-17 0-33 0-58 0 25 75 58 150 83 217-67 58-133 100-192 150-8 0-25 0-33-8-75-50-150-100-225-150-17 25-33 50-50 75 75 50 150 108 233 158-66 83-133 150-158 250 33 0 58 0 92 0 8 0 16-8 25-25 16-58 58-108 100-150 66 33 116 142 125 233h-492v100h300v92h108z" horiz-adv-x="1167" />

<glyph glyph-name="printer-share" unicode="&#xe809;" d="M1063 361h-968c-27 0-53-21-53-58v-358c0-32 26-58 53-58h200v174c0 10 5 15 16 15h542c10 0 15-5 15-15v-174h200c27 0 53 21 53 58v358c-5 37-31 58-58 58z m-705-337h432v-90h-432v90z m253 516v73 200h-316v-379h563v106h-184-63z m405-253c31 0 52-21 52-53s-21-52-52-52-53 21-53 52 21 53 53 53z m-337 326v200l184-200h-184z" horiz-adv-x="1158" />

<glyph glyph-name="search" unicode="&#xe80a;" d="M967-3l-227 193c-27 20-47 33-67 33 54 67 87 147 87 234 0 200-160 366-367 366s-360-166-360-366 160-367 367-367c93 0 173 33 233 87 0-20 7-47 34-67l193-227c33-40 87-40 120-6s27 86-13 120z m-574 220c-133 0-240 106-240 240s107 240 240 240 240-107 240-240-106-240-240-240z" horiz-adv-x="1000" />

<glyph glyph-name="share" unicode="&#xe80b;" d="M633 739h-444c-45 0-78 0-78-45v-655c0-45 33-78 78-78h655c45 0 78 33 78 89v167h111v-278c0-56-44-89-89-89h-866c-45 0-78 33-78 89v833c0 45 33 78 78 78h555v-111z m-433-545c0 0 33 445 556 434v222l344-333-344-334v223c0 0-334 55-556-212z" horiz-adv-x="1111" />

<glyph glyph-name="wechat" unicode="&#xe80c;" d="M357 579c0 33-24 52-52 52-34 0-62-19-62-52 0-29 33-53 62-53 28 5 52 24 52 53z m419-281c0 19-19 38-52 38-19 0-43-19-43-38 0-19 19-43 43-43 33 0 52 24 52 43l0 0z m-133 281c0 28-19 52-52 52-34 0-62-19-62-52 0-29 28-53 62-53 33 5 52 24 52 53z m357-281c0 19-19 38-52 38-19 0-43-19-43-38 0-19 19-43 43-43 33 0 52 24 52 43l0 0z m-148 223c-14 0-23 0-38 0-195 0-347-142-347-319 0-28 4-57 14-85-14 0-24 0-38 0-52 0-91 9-143 19l-143-72 34 119c-105 72-162 162-162 277 0 195 181 342 409 342 200 0 376-119 414-281z m334-314c0-90-62-171-143-233l33-100-114 62c-43-10-81-19-124-19-195 0-347 133-347 295s152 295 347 295c186-9 348-138 348-300l0 0z" horiz-adv-x="1190" />

<glyph glyph-name="down" unicode="&#xe80d;" d="M0 283q0 25 18 43t44 18 42-18l244-243v642q0 25 18 43t43 18 43-18 18-43v-642l243 243q18 18 43 18t43-18q18-18 18-43t-18-44l-390-390-391 390q-18 20-18 44z" horiz-adv-x="817.4" />

<glyph glyph-name="external-link" unicode="&#xe80e;" d="M0 850h375v-125h-250v-750h750v250h125v-375h-1000v1000z m525 0h475v-475l-175 175-275-262-112 112 262 263-175 187z" horiz-adv-x="1000" />

<glyph glyph-name="arrow-right-1" unicode="&#xe80f;" d="M167-61l-111 133 366 311-366 289 111 134 522-434-522-433z" horiz-adv-x="778" />

<glyph glyph-name="weibo" unicode="&#xe810;" d="M510-55c-191-19-358 67-372 191-14 124 133 243 324 262 190 19 357-67 371-191 15-128-133-243-323-262m381 415c-15 4-29 9-20 28 20 48 20 86 0 114-38 53-142 53-257 0 0 0-38-14-28 15 19 57 14 104-15 133-61 62-233-5-380-148-105-104-167-219-167-319 0-190 247-304 486-304 314 0 523 181 523 328 0 86-76 134-142 153m209 347c-76 86-190 114-290 95l0 0c-24-4-39-28-34-52 5-24 29-38 53-33 71 14 152-10 209-67s67-143 48-214l0 0c-10-24 5-48 28-57s48 4 57 28v0c29 105 5 219-71 300m-114-105c-38 43-91 58-143 48-19-5-33-24-29-43 5-19 24-33 48-28l0 0c24 4 52-5 71-24 19-19 24-48 15-72l0 0c-5-19 4-42 23-47 20-5 43 5 48 24 14 47 5 104-33 142m-467-428c-5-10-24-19-33-14-10 4-15 19-10 28 5 10 19 14 34 14 14-4 14-19 9-28m-62-81c-19-29-57-43-90-29-29 15-38 48-19 77 19 28 57 42 85 28 34-9 43-48 24-76m72 209c-91 24-196-23-234-100-38-81 0-171 91-200 95-28 209 15 247 105 38 81-9 172-104 195" horiz-adv-x="1190" />

<glyph glyph-name="th" unicode="&#xe811;" d="M286 154v-108q0-22-16-37t-38-16h-178q-23 0-38 16t-16 37v108q0 22 16 38t38 15h178q23 0 38-15t16-38z m0 285v-107q0-22-16-38t-38-15h-178q-23 0-38 15t-16 38v107q0 23 16 38t38 16h178q23 0 38-16t16-38z m357-285v-108q0-22-16-37t-38-16h-178q-23 0-38 16t-16 37v108q0 22 16 38t38 15h178q23 0 38-15t16-38z m-357 571v-107q0-22-16-38t-38-16h-178q-23 0-38 16t-16 38v107q0 22 16 38t38 16h178q23 0 38-16t16-38z m357-286v-107q0-22-16-38t-38-15h-178q-23 0-38 15t-16 38v107q0 23 16 38t38 16h178q23 0 38-16t16-38z m357-285v-108q0-22-16-37t-38-16h-178q-22 0-38 16t-16 37v108q0 22 16 38t38 15h178q23 0 38-15t16-38z m-357 571v-107q0-22-16-38t-38-16h-178q-23 0-38 16t-16 38v107q0 22 16 38t38 16h178q23 0 38-16t16-38z m357-286v-107q0-22-16-38t-38-15h-178q-22 0-38 15t-16 38v107q0 23 16 38t38 16h178q23 0 38-16t16-38z m0 286v-107q0-22-16-38t-38-16h-178q-22 0-38 16t-16 38v107q0 22 16 38t38 16h178q23 0 38-16t16-38z" horiz-adv-x="1000" />

<glyph glyph-name="align-justify" unicode="&#xe812;" d="M1000 100v-71q0-15-11-25t-25-11h-928q-15 0-25 11t-11 25v71q0 15 11 25t25 11h928q15 0 25-11t11-25z m0 214v-71q0-15-11-25t-25-11h-928q-15 0-25 11t-11 25v71q0 15 11 25t25 11h928q15 0 25-11t11-25z m0 215v-72q0-14-11-25t-25-11h-928q-15 0-25 11t-11 25v72q0 14 11 25t25 10h928q15 0 25-10t11-25z m0 214v-72q0-14-11-25t-25-10h-928q-15 0-25 10t-11 25v72q0 14 11 25t25 11h928q15 0 25-11t11-25z" horiz-adv-x="1000" />

<glyph glyph-name="down-open" unicode="&#xf004;" d="M0 533q0 25 18 43t44 18 42-18l305-303 304 303q18 18 43 18t43-18q18-18 18-43t-18-43l-390-391-391 391q-18 19-18 43z" horiz-adv-x="817.4" />

<glyph glyph-name="up-open" unicode="&#xf005;" d="M0 167q0 26 18 43l391 391 390-391q17-17 17-43 0-26-17-44-18-17-44-17t-43 17l-303 305-305-305q-18-17-43-17t-43 17q-18 18-18 44z" horiz-adv-x="816.9" />

<glyph glyph-name="arrow-right" unicode="&#xf006;" d="M0 0q0 25 18 43l305 304-305 304q-18 18-18 44t18 43 44 18 43-18l390-391-390-391q-19-18-43-18t-44 18q-18 18-18 44z" horiz-adv-x="495.1" />

<glyph glyph-name="left-open" unicode="&#xf007;" d="M0 353l391 391q18 18 43 18 24 0 43-18 18-18 18-44t-18-43l-304-304 304-305q18-17 18-43t-18-43q-18-18-43-18t-43 18z" horiz-adv-x="495.1" />

<glyph glyph-name="twitter" unicode="&#xf099;" d="M904 622q-37-54-90-93 0-8 0-23 0-73-21-145t-64-139-103-117-144-82-181-30q-151 0-276 81 19-2 43-2 126 0 224 77-59 1-105 36t-64 89q19-3 34-3 24 0 48 6-63 13-104 62t-41 115v2q38-21 82-23-37 25-59 64t-22 86q0 49 25 91 68-83 164-133t208-55q-5 21-5 41 0 75 53 127t127 53q79 0 132-57 61 12 115 44-21-64-80-100 52 6 104 28z" horiz-adv-x="928.6" />

<glyph glyph-name="facebook" unicode="&#xf09a;" d="M535 843v-147h-87q-48 0-65-20t-17-60v-106h164l-22-165h-142v-424h-171v424h-142v165h142v122q0 104 58 161t155 57q82 0 127-7z" horiz-adv-x="571.4" />

<glyph glyph-name="linkedin" unicode="&#xf0e1;" d="M195 501v-553h-184v553h184z m12 171q0-41-29-68t-75-27h-1q-46 0-74 27t-28 68q0 41 29 68t75 27 74-27 29-68z m650-407v-317h-183v296q0 59-23 92t-71 33q-35 0-58-19t-36-48q-6-17-6-45v-309h-184q1 223 1 361t0 165l-1 27h184v-80h-1q11 18 23 31t31 29 49 24 64 9q95 0 153-63t58-186z" horiz-adv-x="857.1" />
</font>
</defs>
</svg>
