<svg id="Layer_1" xmlns="http://www.w3.org/2000/svg" xmlns:xlink="http://www.w3.org/1999/xlink" viewBox="0 0 33 40.2"><style>.st0{fill:#FFFFFF;} .st1{clip-path:url(#SVGID_2_);} .st2{clip-path:url(#SVGID_4_);} .st3{clip-path:url(#SVGID_6_);} .st4{fill:#EF4237;} .st5{clip-path:url(#SVGID_8_);} .st6{clip-path:url(#SVGID_10_);}</style><title>cp--logo-small</title><path class="st0" d="M5.4 5.9h24.1V36H5.4z"/><defs><path id="SVGID_1_" d="M0 .1h33v40.1H0z"/></defs><clipPath id="SVGID_2_"><use xlink:href="#SVGID_1_" overflow="visible"/></clipPath><g class="st1"><defs><path id="SVGID_3_" d="M0 40.2h33V.1H0v40.1zm23.8-27.3h-1.5l-.3-1.3H11.1v10.6h2.2V15v-.1-.1c0-.6.4-1 1-1h8.6c.6 0 1 .4 1 1V23.1c0 .6-.4 1-1 1h-7.6V31l1.3.3v1.5H12v-1.5l1.3-.3v-6.9h-3.1c-.6 0-1-.4-1-1V10.6c0-.6.4-1 1-1H22l.3-1.3h1.5v4.6z"/></defs><clipPath id="SVGID_4_"><use xlink:href="#SVGID_3_" overflow="visible"/></clipPath><g class="st2"><defs><path id="SVGID_5_" d="M0 0h33v41H0z"/></defs><clipPath id="SVGID_6_"><use xlink:href="#SVGID_5_" overflow="visible"/></clipPath><path class="st3 st4" d="M-5-4.9h43v50.1H-5z"/></g><g><defs><path id="SVGID_7_" d="M15.3 15.8h6.6v6.4h-6.6z"/></defs><clipPath id="SVGID_8_"><use xlink:href="#SVGID_7_" overflow="visible"/></clipPath><g class="st5"><defs><path id="SVGID_9_" d="M0 0h33v41H0z"/></defs><clipPath id="SVGID_10_"><use xlink:href="#SVGID_9_" overflow="visible"/></clipPath><path class="st6 st4" d="M10.3 10.8h16.6v16.4H10.3z"/></g></g></g></svg>