<?xml version="1.0" encoding="utf-8"?>
<!-- Generator: Adobe Illustrator 21.0.0, SVG Export Plug-In . SVG Version: 6.00 Build 0)  -->
<svg version="1.1" id="Layer_1" xmlns="http://www.w3.org/2000/svg" xmlns:xlink="http://www.w3.org/1999/xlink" x="0px" y="0px"
	 viewBox="0 0 33 40" style="enable-background:new 0 0 33 40;" xml:space="preserve">
<style type="text/css">
	.st0{filter:url(#Adobe_OpacityMaskFilter);}
	.st1{fill:#FFFFFF;}
	.st2{mask:url(#mask-2);fill:#EE4136;}
	.st3{fill:#EE4136;}
</style>
<title>Group 2</title>
<desc>Created with Sketch.</desc>
<g id="Symbols">
	<g id="tiny-china-power-icon">
		<g id="Group-2">
			<g id="Group">
				<g id="Group-3">
					<g id="Clip-2">
					</g>
					<defs>
						<filter id="Adobe_OpacityMaskFilter" filterUnits="userSpaceOnUse" x="0" y="0" width="33" height="40">
							<feColorMatrix  type="matrix" values="1 0 0 0 0  0 1 0 0 0  0 0 1 0 0  0 0 0 1 0"/>
						</filter>
					</defs>
					<mask maskUnits="userSpaceOnUse" x="0" y="0" width="33" height="40" id="mask-2">
						<g class="st0">
							<polygon id="path-1" class="st1" points="33,0 0,0 0,40 33,40 							"/>
						</g>
					</mask>
					<path id="Fill-1" class="st2" d="M23.8,12.8h-1.5L22,11.5H11.1v10.6h2.2V15c0,0,0-0.1,0-0.1c0,0,0-0.1,0-0.1c0-0.5,0.4-1,1-1
						h8.6c0.5,0,1,0.4,1,1c0,0,0,0.1,0,0.1V23c0,0,0,0,0,0.1c0,0,0,0.1,0,0.1c0,0.5-0.4,1-1,1h-7.6V31l1.3,0.3v1.5H12v-1.5l1.3-0.3
						v-6.9h-3.1c-0.5,0-1-0.4-1-1V10.5c0-0.5,0.4-1,1-1c0,0,0.1,0,0.1,0c0,0,0,0,0.1,0H22l0.3-1.3h1.5V12.8z M0,40h33V0H0V40z"/>
				</g>
				<polygon id="Fill-4" class="st3" points="15.3,22 21.9,22 21.9,15.7 15.3,15.7 				"/>
			</g>
		</g>
	</g>
</g>
</svg>
