<svg id="Layer_1" data-name="Layer 1" xmlns="http://www.w3.org/2000/svg" viewBox="0 0 341.7 50.73"><defs><style>.cls-1{fill:#fff;}.cls-2{fill:#ed392a;}</style></defs><title>chinapower-logo-main</title><path class="cls-1" d="M5.56 6.41h31v39.84h-31z"/><path class="cls-2" d="M0 0v50.73h42V0zm30.28 16.18h-1.93L28 14.59H14.15V28h2.74v-9a1.2 1.2 0 0 1 0-.13 1.2 1.2 0 0 1 0-.13 1.24 1.24 0 0 1 1.24-1.24H29a1.24 1.24 0 0 1 1.24 1.24v10.54A1.24 1.24 0 0 1 29 30.52h-9.63v8.74l1.61.33v1.93H15.3v-1.93l1.59-.32v-8.75h-4a1.24 1.24 0 0 1-1.24-1.24V13.35a1.24 1.24 0 0 1 1.24-1.24H28l.33-1.61h1.93z"/><path class="cls-2" d="M19.37 19.99h8.43v8.06h-8.43z"/><path class="cls-1" d="M83.28 20.48h-3.55l-.94-5.26a9.73 9.73 0 0 0-3-2 10.79 10.79 0 0 0-4.26-.77 10.43 10.43 0 0 0-8.91 4.2 17.42 17.42 0 0 0-3.12 10.66v.59a17.8 17.8 0 0 0 3.05 10.69A9.86 9.86 0 0 0 71 42.85a12.77 12.77 0 0 0 4.6-.79 8.81 8.81 0 0 0 3.19-1.94l.94-5.26h3.55v6.61a13.93 13.93 0 0 1-4.83 3.69A16.35 16.35 0 0 1 71 46.78a15 15 0 0 1-11.9-5.36 19.85 19.85 0 0 1-4.65-13.48v-.54q0-8.17 4.57-13.52A15 15 0 0 1 71 8.53a16.15 16.15 0 0 1 7.46 1.65 14.36 14.36 0 0 1 4.83 3.69zM86.65 43l4.16-.71V10.36l-4.16-.72V6.41h9.19v15.88a10.1 10.1 0 0 1 3.5-3.09 9.65 9.65 0 0 1 4.6-1.1 8.92 8.92 0 0 1 6.9 2.66q2.45 2.66 2.45 8.17v13.38l4.16.71v3.22h-13.36V43l4.16-.71V28.88a7.4 7.4 0 0 0-1.47-5.06 5.59 5.59 0 0 0-4.38-1.63 7.39 7.39 0 0 0-3.77 1 8.22 8.22 0 0 0-2.8 2.67v16.45L100 43v3.22H86.65zM121.1 43l4.16-.71V22.57l-4.16-.71v-3.25h9.19v23.7l4.16.71v3.22H121.1zm9.19-31.49h-5v-5.1h5zM137.54 43l4.16-.71V22.57l-4.16-.71v-3.25h8.66l.36 4.11a10 10 0 0 1 3.44-3.4 9.23 9.23 0 0 1 4.74-1.21 9 9 0 0 1 6.92 2.62q2.45 2.62 2.45 8.08v13.5l4.16.71v3.22h-13.34V43l4.16-.71V28.9q0-3.65-1.44-5.18a5.78 5.78 0 0 0-4.41-1.53 7.09 7.09 0 0 0-3.84 1 7.65 7.65 0 0 0-2.67 2.86v16.26l4.16.71v3.22h-13.35zM190 46.24q-.23-1.12-.36-2t-.18-1.79a12.17 12.17 0 0 1-3.64 3.1 9.3 9.3 0 0 1-4.66 1.24q-4.32 0-6.56-2.11a7.74 7.74 0 0 1-2.25-5.94 6.88 6.88 0 0 1 3.18-6.07q3.18-2.13 8.72-2.13h5.18v-3.22a5 5 0 0 0-1.53-3.84 6 6 0 0 0-4.26-1.42 10.45 10.45 0 0 0-3.33.49 6.26 6.26 0 0 0-2.34 1.33l-.54 2.91h-3.88v-5.37A14.93 14.93 0 0 1 178.1 19a18.08 18.08 0 0 1 5.82-.91 11.58 11.58 0 0 1 7.61 2.4 8.4 8.4 0 0 1 2.91 6.87v14.3l.06 1 2 .28v3.22zm-8.1-3.68a8.94 8.94 0 0 0 4.57-1.2 7.45 7.45 0 0 0 3-2.89v-4.53H184a7.65 7.65 0 0 0-4.89 1.43 4.3 4.3 0 0 0-1.8 3.47 3.44 3.44 0 0 0 1.12 2.77 5.13 5.13 0 0 0 3.45.96zM217.37 9.06q6 0 9.26 3.06a10.48 10.48 0 0 1 3.31 8.07 10.47 10.47 0 0 1-3.31 8.1q-3.31 3-9.26 3h-7.89v11l4.16.71v3.22h-13.35V43l4.16-.71V13l-4.16-.72V9.06h17.08zm-7.89 18.34h7.89q3.78 0 5.66-2a7.25 7.25 0 0 0 1.88-5.12 7.39 7.39 0 0 0-1.91-5.19Q221.15 13 217.37 13h-7.89zM230.08 32.17a15.21 15.21 0 0 1 3.32-10.1 12.28 12.28 0 0 1 18.07 0 15.16 15.16 0 0 1 3.33 10.11v.56a15.14 15.14 0 0 1-3.32 10.11 12.34 12.34 0 0 1-18.08 0 15.15 15.15 0 0 1-3.32-10.1zm5 .56A13.1 13.1 0 0 0 237 40a6.66 6.66 0 0 0 10.94 0 13 13 0 0 0 1.86-7.25v-.56a13.07 13.07 0 0 0-1.86-7.23 6.12 6.12 0 0 0-5.49-2.89 6.06 6.06 0 0 0-5.46 2.89 13.2 13.2 0 0 0-1.84 7.23zM266.58 21.86l-3.17.56L267 36.18l.59 3.35h.15l.71-3.35L274 18.61h4l5.54 17.57.79 3.73h.15l.74-3.73 3.4-13.76-3.22-.56v-3.25H296v3.24l-2.4.36-7 24h-4.06l-5.36-16.83-1.18-4.61h-.15l-1.07 4.62-5.26 16.83h-4.06l-7-24-2.43-.36v-3.25h10.52zM308.71 46.78a11.66 11.66 0 0 1-9.18-3.84 14.47 14.47 0 0 1-3.41-10v-1.1a14.17 14.17 0 0 1 3.51-9.84 10.82 10.82 0 0 1 8.31-3.92q5.57 0 8.44 3.37t2.87 9v3.15h-17.92l-.08.13a10.92 10.92 0 0 0 2 6.55 6.43 6.43 0 0 0 5.44 2.57 12.66 12.66 0 0 0 4.48-.73 10.29 10.29 0 0 0 3.33-2l2 3.27a12.06 12.06 0 0 1-3.92 2.41 15.67 15.67 0 0 1-5.87.98zm-.77-24.72a5.45 5.45 0 0 0-4.32 2.13 10.1 10.1 0 0 0-2.2 5.35l.05.13h12.74V29a7.71 7.71 0 0 0-1.58-5 5.64 5.64 0 0 0-4.69-1.94zM324.21 21.86v-3.25h8.66l.48 4a9.66 9.66 0 0 1 2.9-3.32 6.74 6.74 0 0 1 3.95-1.2 8.58 8.58 0 0 1 1.21.09 6.69 6.69 0 0 1 1 .19l-.66 4.67-2.86-.15a5.76 5.76 0 0 0-3.35.93 6 6 0 0 0-2.09 2.62v15.87l4.16.71v3.22h-13.4V43l4.16-.71V22.57z"/></svg>