<svg xmlns="http://www.w3.org/2000/svg" viewBox="0 0 41.95 50.73"><defs><style>.cls-1{fill:#ed392a;}</style></defs><title>china-power-symbol</title><g id="Layer_2" data-name="Layer 2"><g id="Layer_1-2" data-name="Layer 1"><path class="cls-1" d="M0 0v50.73h42V0zm30.28 16.18h-1.93L28 14.59H14.15V28h2.74v-9a1.2 1.2 0 0 1 0-.13 1.2 1.2 0 0 1 0-.13 1.24 1.24 0 0 1 1.24-1.24H29a1.24 1.24 0 0 1 1.24 1.24v10.54A1.24 1.24 0 0 1 29 30.52h-9.63v8.74l1.61.33v1.93H15.3v-1.93l1.59-.32v-8.75h-4a1.24 1.24 0 0 1-1.24-1.24V13.35a1.24 1.24 0 0 1 1.24-1.24H28l.33-1.61h1.93z"/><path class="cls-1" d="M19.37 19.99h8.43v8.06h-8.43z"/></g></g></svg>