<svg id="Layer_1" data-name="Layer 1" xmlns="http://www.w3.org/2000/svg" viewBox="0 0 309.15 34.25"><defs><style>.cls-1{fill:none;stroke:#fff;stroke-linecap:round;}.cls-2{fill:#fff;}</style></defs><title>csis-cpp-logo-white</title><path class="cls-1" d="M75.46 3.05v28.98M226.21 3.05v28.98"/><path class="cls-2" d="M93.1 14.63a2.35 2.35 0 0 1-.92.64 3.18 3.18 0 0 1-1.19.22 3.52 3.52 0 0 1-1.12-.18 2.39 2.39 0 0 1-.94-.59 2.91 2.91 0 0 1-.65-1.07 4.65 4.65 0 0 1-.28-1.59 4 4 0 0 1 .23-1.39 3.16 3.16 0 0 1 .62-1 2.69 2.69 0 0 1 .97-.67A2.86 2.86 0 0 1 91 8.73h1.9c.1 0 .14 0 .13.11l-.08.65a.15.15 0 0 1-.06.1.12.12 0 0 1-.11 0l-.38-.13-.4-.08-.44-.06h-.61a1.24 1.24 0 0 0-1.13.7 4.29 4.29 0 0 0-.4 2.08 5.2 5.2 0 0 0 .15 1.36 2.41 2.41 0 0 0 .41.87 1.46 1.46 0 0 0 .6.46 1.93 1.93 0 0 0 .73.14 1.53 1.53 0 0 0 .72-.21 3.5 3.5 0 0 0 .67-.46h.11l.28.31a.07.07 0 0 1 .01.06zM99.07 15.34h-4.25c-.1 0-.15 0-.15-.13V8.86c0-.09 0-.13.15-.13h4.12a.09.09 0 0 1 0 .09v.52a.08.08 0 0 1 0 .09.19.19 0 0 1-.12 0l-.66-.08-.57-.06H96.2a.27.27 0 0 0-.19.07.24.24 0 0 0-.08.18v2a.07.07 0 0 0 .08.08l2-.05c.07 0 .11 0 .11.08v.52c0 .05 0 .08-.11.08l-2-.05a.07.07 0 0 0-.08.08v2.25a.27.27 0 0 0 .27.27H97.61l.62-.07.72-.11a.21.21 0 0 1 .12 0 .09.09 0 0 1 0 .09v.56a.09.09 0 0 1 0 .07zM105.86 13.59v1.78s0 .08-.09.1a.64.64 0 0 1-.19 0h-.2a.26.26 0 0 1-.12 0l-3.54-4.84h-.08a.07.07 0 0 0 0 .07l.13 4.52a.42.42 0 0 1 0 .13h-.87q-.12 0-.12-.18l.12-4.68V8.85c0-.09 0-.13.14-.13h.62a.22.22 0 0 1 .19.09l3.12 4.25a.12.12 0 0 0 .13.06.09.09 0 0 0 .07-.1L105 8.91a.42.42 0 0 1 0-.13H105.91a.41.41 0 0 1 0 .13zM112.69 9.33q0 .11-.14.1l-.63-.07h-1.05a.15.15 0 0 0-.11.06.21.21 0 0 0 0 .14v5.73c0 .09 0 .13-.14.13h-1c-.1 0-.14 0-.14-.13v-5.8a.21.21 0 0 0 0-.14.14.14 0 0 0-.1-.06h-1.05l-.63.07q-.13 0-.14-.1v-.49a.07.07 0 0 1 0-.09H112.75a.07.07 0 0 1 0 .09zM118.62 15.34h-4.25c-.1 0-.14 0-.14-.13V8.86c0-.09 0-.13.14-.13h4.12a.09.09 0 0 1 0 .09v.52a.08.08 0 0 1 0 .09.19.19 0 0 1-.12 0l-.66-.08-.58-.06H115.74a.27.27 0 0 0-.19.07.24.24 0 0 0-.08.18v2a.07.07 0 0 0 .08.08l2-.05c.07 0 .11 0 .11.08v.52c0 .05 0 .08-.11.08l-2-.05a.07.07 0 0 0-.08.08v2.25a.27.27 0 0 0 .26.27H117.14l.62-.07.72-.11a.21.21 0 0 1 .12 0 .09.09 0 0 1 0 .09v.56a.09.09 0 0 1 .02.07zM125.59 15.23v.09a.14.14 0 0 1-.11 0h-1.23a.14.14 0 0 1-.11 0l-.08-.09-1.38-2.53q-.24-.44-.57-.44h-.41a.24.24 0 0 0-.14 0 .15.15 0 0 0-.07.13v2.79c0 .09 0 .13-.14.13h-1c-.1 0-.14 0-.14-.13V8.86a.23.23 0 0 1 0-.1H123.18a2 2 0 0 1 .69.12 1.75 1.75 0 0 1 .56.33 1.56 1.56 0 0 1 .38.5 1.42 1.42 0 0 1 .14.63 1.7 1.7 0 0 1-.44 1.18 2.1 2.1 0 0 1-1.14.64c-.07 0-.08 0 0 .09a1.32 1.32 0 0 1 .16.17l.26.35 1.45 2.08zm-1.92-4.86a1.23 1.23 0 0 0-.31-.87 1.09 1.09 0 0 0-.83-.34h-.72a.31.31 0 0 0-.2.07.23.23 0 0 0-.09.18v2.21a.18.18 0 0 0 .07.14.21.21 0 0 0 .14.06h.38a1.85 1.85 0 0 0 1.16-.33 1.35 1.35 0 0 0 .4-1.12zM134.54 9.45a.19.19 0 0 1-.12 0l-.73-.08-.57-.06h-1.21a.27.27 0 0 0-.19.07.24.24 0 0 0-.08.18v2a.07.07 0 0 0 .08.08l1.89-.06c.07 0 .11 0 .11.08v.52q0 .08-.11.08l-1.89-.05a.07.07 0 0 0-.08.08v3c0 .09 0 .13-.14.13h-1c-.1 0-.14 0-.14-.13V8.86c0-.09 0-.13.14-.13h4.01a.09.09 0 0 1 0 .09v.52a.08.08 0 0 1 .03.11zM141.41 12a5.63 5.63 0 0 1-.14 1.26 3.16 3.16 0 0 1-.49 1.12 2.57 2.57 0 0 1-.9.8 2.87 2.87 0 0 1-1.39.3 3.05 3.05 0 0 1-1.39-.28 2.35 2.35 0 0 1-.88-.76 3 3 0 0 1-.46-1.09 6.06 6.06 0 0 1-.13-1.28 5.63 5.63 0 0 1 .14-1.26 3.24 3.24 0 0 1 .48-1.12 2.53 2.53 0 0 1 .89-.79 2.88 2.88 0 0 1 1.39-.3 3.09 3.09 0 0 1 1.4.28 2.36 2.36 0 0 1 .89.76 3 3 0 0 1 .46 1.09 6.07 6.07 0 0 1 .13 1.27zm-1.34.18v-1a4.29 4.29 0 0 0-.19-1 1.93 1.93 0 0 0-.48-.79 1.22 1.22 0 0 0-.89-.31 1.18 1.18 0 0 0-.8.26 1.64 1.64 0 0 0-.46.68 3.6 3.6 0 0 0-.21.91v2a3.93 3.93 0 0 0 .19 1 2 2 0 0 0 .48.79 1.23 1.23 0 0 0 .9.31 1.18 1.18 0 0 0 .8-.26 1.64 1.64 0 0 0 .46-.68 3.59 3.59 0 0 0 .21-.91c-.02-.35-.01-.68-.01-.99zM148.6 15.23v.09a.14.14 0 0 1-.11 0h-1.23a.14.14 0 0 1-.11 0l-.08-.09-1.37-2.53q-.24-.44-.57-.44h-.41a.24.24 0 0 0-.14 0 .15.15 0 0 0-.07.13v2.79c0 .09 0 .13-.14.13h-1c-.1 0-.14 0-.14-.13V8.86a.23.23 0 0 1 0-.1H146.2a2 2 0 0 1 .69.12 1.75 1.75 0 0 1 .56.33 1.56 1.56 0 0 1 .38.5 1.42 1.42 0 0 1 .14.63 1.7 1.7 0 0 1-.44 1.18 2.1 2.1 0 0 1-1.14.64c-.07 0-.08 0 0 .09a1.32 1.32 0 0 1 .16.17l.26.35 1.45 2.08zm-1.92-4.86a1.23 1.23 0 0 0-.31-.87 1.09 1.09 0 0 0-.83-.34h-.72a.31.31 0 0 0-.2.07.23.23 0 0 0-.09.18v2.21a.18.18 0 0 0 .07.14.21.21 0 0 0 .14.06h.38a1.85 1.85 0 0 0 1.16-.33 1.35 1.35 0 0 0 .4-1.12zM157.88 13.6a1.9 1.9 0 0 1-.18.87 1.58 1.58 0 0 1-.5.59 2.2 2.2 0 0 1-.76.33 4.19 4.19 0 0 1-1 .1 5.19 5.19 0 0 1-1.31-.14 7.67 7.67 0 0 1-1-.31.11.11 0 0 1-.07-.08.17.17 0 0 1 0-.11l.2-.74s0-.07.08-.07a.16.16 0 0 1 .11.06 2.93 2.93 0 0 0 .87.6 2.71 2.71 0 0 0 1.16.25 1.36 1.36 0 0 0 .46-.08 1.37 1.37 0 0 0 .41-.23 1.25 1.25 0 0 0 .3-.35 1 1 0 0 0-.16-1.14 2.43 2.43 0 0 0-.68-.43q-.41-.18-.89-.34a4.47 4.47 0 0 1-.89-.4 2.29 2.29 0 0 1-.68-.62 1.65 1.65 0 0 1-.28-1 1.61 1.61 0 0 1 .53-1.29 2.17 2.17 0 0 1 1.47-.46 8.86 8.86 0 0 1 1.33.09q.57.09 1 .11a.07.07 0 0 1 .07 0 .18.18 0 0 1 0 .1l-.15.74c0 .09-.08.11-.18.06l-.36-.21a2.92 2.92 0 0 0-.45-.2 4 4 0 0 0-.55-.15 3.44 3.44 0 0 0-.68-.06 1.11 1.11 0 0 0-.67.22.72.72 0 0 0-.3.62.9.9 0 0 0 .28.7 2.41 2.41 0 0 0 .68.43c.27.12.57.23.89.34a4 4 0 0 1 .89.42 2.33 2.33 0 0 1 .69.67 1.93 1.93 0 0 1 .32 1.11zM164.34 9.33q0 .11-.14.1l-.63-.07h-1.05a.15.15 0 0 0-.11.06.21.21 0 0 0 0 .14v5.73c0 .09 0 .13-.14.13h-1c-.1 0-.14 0-.14-.13v-5.8a.21.21 0 0 0 0-.14.15.15 0 0 0-.11-.06h-1.05l-.63.07q-.13 0-.14-.1v-.49a.07.07 0 0 1 0-.09H164.39a.07.07 0 0 1 0 .09zM171.22 15.23v.09a.14.14 0 0 1-.11 0h-1.23a.14.14 0 0 1-.11 0l-.08-.09-1.38-2.53q-.24-.44-.57-.44h-.41a.24.24 0 0 0-.14 0 .15.15 0 0 0-.07.13v2.79c0 .09 0 .13-.14.13h-1c-.1 0-.14 0-.14-.13V8.86a.23.23 0 0 1 0-.1H168.81a2 2 0 0 1 .69.12 1.75 1.75 0 0 1 .56.33 1.56 1.56 0 0 1 .38.5 1.42 1.42 0 0 1 .14.63 1.7 1.7 0 0 1-.44 1.18 2.1 2.1 0 0 1-1.14.64c-.07 0-.08 0 0 .09a1.32 1.32 0 0 1 .16.17l.26.35 1.45 2.08zm-1.92-4.86a1.23 1.23 0 0 0-.3-.87 1.09 1.09 0 0 0-.83-.34h-.72a.31.31 0 0 0-.2.07.23.23 0 0 0-.09.18v2.21a.18.18 0 0 0 .07.14.21.21 0 0 0 .14.06h.38a1.85 1.85 0 0 0 1.16-.33 1.35 1.35 0 0 0 .38-1.12zM178.48 15.23c.05.09 0 .13-.09.13h-1.18a.19.19 0 0 1-.2-.13l-.1-.28-.09-.24-.08-.23-.35-.94a.13.13 0 0 0-.13-.09h-2.05a.13.13 0 0 0-.13.09l-.54 1.7a.17.17 0 0 1-.18.12h-.86a.18.18 0 0 1 0-.12l2.5-6.46s.06-.06.15-.08a1.26 1.26 0 0 1 .27 0h.27q.13 0 .15.08l2.31 5.71.1.23.12.24zm-3.23-4.81h-.05-.06l-.85 2.45a.06.06 0 0 0 0 .08.09.09 0 0 0 .07 0h1.75c.07 0 .1 0 .07-.11zM184 9.33q0 .11-.14.1l-.63-.07h-1.05a.15.15 0 0 0-.11.06.21.21 0 0 0 0 .14v5.73c0 .09 0 .13-.14.13h-1c-.1 0-.14 0-.14-.13v-5.8a.21.21 0 0 0 0-.14.15.15 0 0 0-.11-.06h-1.05l-.63.07q-.13 0-.14-.1v-.49a.07.07 0 0 1 0-.09H184.05a.07.07 0 0 1 0 .09zM189.9 15.34h-4.25c-.1 0-.14 0-.14-.13V8.86c0-.09 0-.13.14-.13h4.12a.09.09 0 0 1 0 .09v.52a.08.08 0 0 1 0 .09.19.19 0 0 1-.12 0l-.65-.05-.58-.06H187a.27.27 0 0 0-.19.07.24.24 0 0 0-.08.18v2a.07.07 0 0 0 .08.08l2-.05c.07 0 .11 0 .11.08v.52c0 .05 0 .08-.11.08l-2-.05a.07.07 0 0 0-.08.08v2.25a.27.27 0 0 0 .26.27H188.4l.62-.07.72-.11a.21.21 0 0 1 .12 0 .09.09 0 0 1 0 .09v.56a.09.09 0 0 1 .04.04zM196.48 15.34a.2.2 0 0 1-.12 0 .23.23 0 0 1-.12 0l-.13-.1-.17-.15a.1.1 0 0 0-.1 0h-.1a3.51 3.51 0 0 1-.75.28 3.79 3.79 0 0 1-1 .12 3.52 3.52 0 0 1-1.12-.18 2.43 2.43 0 0 1-.94-.58 2.85 2.85 0 0 1-.65-1.06 4.66 4.66 0 0 1-.24-1.61 4 4 0 0 1 .23-1.39 3.13 3.13 0 0 1 .62-1 2.69 2.69 0 0 1 .93-.66 2.86 2.86 0 0 1 1.18-.28h1.9c.1 0 .14 0 .13.11l-.08.65a.15.15 0 0 1-.06.1.12.12 0 0 1-.11 0l-.38-.13-.37-.1-.44-.06h-.61a1.26 1.26 0 0 0-1.14.7 4.19 4.19 0 0 0-.41 2.08 5.07 5.07 0 0 0 .16 1.36 2.46 2.46 0 0 0 .41.87 1.47 1.47 0 0 0 .61.46 2 2 0 0 0 .73.14 1 1 0 0 0 .31-.05 1.46 1.46 0 0 0 .34-.15 1.11 1.11 0 0 0 .27-.23.42.42 0 0 0 .1-.27v-.32-.62s0-.55-.06-.87a.7.7 0 0 1 0-.12.44.44 0 0 1 0-.09v-.05c0-.1 0-.15.14-.15h1c.06 0 .09 0 .09.08v3.18a.13.13 0 0 1-.05.09zM199.6 15.36h-1c-.1 0-.14 0-.14-.13V8.86c0-.09 0-.13.14-.13h1c.09 0 .14 0 .14.13v6.36c.01.1-.04.14-.14.14zM206.65 14.63a2.35 2.35 0 0 1-.92.64 3.18 3.18 0 0 1-1.19.22 3.52 3.52 0 0 1-1.12-.18 2.39 2.39 0 0 1-.94-.59 2.89 2.89 0 0 1-.65-1.07 4.65 4.65 0 0 1-.24-1.61 4 4 0 0 1 .23-1.39 3.14 3.14 0 0 1 .62-1 2.69 2.69 0 0 1 .93-.66 2.86 2.86 0 0 1 1.15-.23h1.9c.1 0 .14 0 .13.11l-.08.65a.15.15 0 0 1-.06.1.12.12 0 0 1-.11 0l-.38-.13-.37-.1-.44-.06h-.61a1.24 1.24 0 0 0-1.13.7 4.29 4.29 0 0 0-.4 2.08 5.2 5.2 0 0 0 .15 1.36 2.42 2.42 0 0 0 .41.87 1.46 1.46 0 0 0 .6.46 1.93 1.93 0 0 0 .73.14 1.53 1.53 0 0 0 .72-.21 3.54 3.54 0 0 0 .67-.46h.11l.28.31a.07.07 0 0 1 .01.05zM215.4 12.6a.23.23 0 0 1 0 .08h-.89v2.54a.11.11 0 0 1 0 .09.14.14 0 0 1-.09 0h-2.49a2.13 2.13 0 0 1-.79-.13 1.6 1.6 0 0 1-.55-.35 1.3 1.3 0 0 1-.31-.49 1.65 1.65 0 0 1-.1-.56 1.32 1.32 0 0 1 .09-.49 1.56 1.56 0 0 1 .27-.45 1.79 1.79 0 0 1 .41-.35 1.65 1.65 0 0 1 .51-.21 1.25 1.25 0 0 1-.61-.5 1.36 1.36 0 0 1-.2-.71 1.21 1.21 0 0 1 .45-1 2 2 0 0 1 1.21-.33h1c.11 0 .16 0 .15.12v.42q0 .14-.14.1l-.21-.12-.2-.08a.69.69 0 0 0-.21 0 .85.85 0 0 0-.63.23 1.09 1.09 0 0 0-.23.78 1.2 1.2 0 0 0 .25.78.88.88 0 0 0 .72.31h.77v-.71c0-.1 0-.14.14-.12l.77.09h.09a.08.08 0 0 1 0 .08v.63h.77c.08 0 .12 0 .12.11zm-1.94.1h-1a1.07 1.07 0 0 0-.45.09.94.94 0 0 0-.33.24 1.16 1.16 0 0 0-.2.35 1.12 1.12 0 0 0-.07.39 1.52 1.52 0 0 0 .07.45 1.34 1.34 0 0 0 .19.39.89.89 0 0 0 .3.27.8.8 0 0 0 .4.1 6 6 0 0 0 .65 0 3.6 3.6 0 0 0 .5-.09zM89.38 28.25h-1c-.1 0-.14 0-.14-.13v-6.37c0-.09 0-.13.14-.13h1c.1 0 .14 0 .14.13v6.36c0 .09-.04.14-.14.14zM96.76 26.48v1.78s0 .08-.09.1a.64.64 0 0 1-.19 0h-.2a.24.24 0 0 1-.12 0l-3.54-4.84a.07.07 0 0 0-.08 0 .07.07 0 0 0 0 .07l.13 4.52a.42.42 0 0 1 0 .13h-.87c-.08 0-.12-.06-.12-.18l.12-4.68v-1.63c0-.09 0-.13.14-.13h.62a.22.22 0 0 1 .19.09L95.76 26a.12.12 0 0 0 .13.06.09.09 0 0 0 .07-.11l-.09-4.12a.42.42 0 0 1 0-.13H96.78a.4.4 0 0 1 0 .13zM103.58 22.22q0 .11-.14.1l-.63-.07h-1.05a.14.14 0 0 0-.1.05.21.21 0 0 0 0 .14v5.73c0 .09 0 .13-.14.13h-1c-.1 0-.14 0-.14-.13v-5.79a.21.21 0 0 0 0-.14.14.14 0 0 0-.1-.05h-1.05l-.63.07q-.13 0-.14-.1v-.49a.07.07 0 0 1 0-.09H103.65a.07.07 0 0 1 0 .09zM109.52 28.23h-4.25c-.1 0-.15 0-.15-.13v-6.35c0-.09 0-.13.15-.13h4.12a.09.09 0 0 1 0 .09v.52a.09.09 0 0 1 0 .09.2.2 0 0 1-.12 0l-.66-.08-.57-.06H106.65a.26.26 0 0 0-.19.07.24.24 0 0 0-.08.18v2a.07.07 0 0 0 .08.08l2-.06c.07 0 .11 0 .11.08v.52c0 .05 0 .08-.11.08l-2-.05a.07.07 0 0 0-.08.08v2.25a.26.26 0 0 0 .27.26H108.06l.62-.07.72-.11a.21.21 0 0 1 .12 0 .09.09 0 0 1 0 .09v.56a.09.09 0 0 1 0 .09zM116.49 28.12v.09a.14.14 0 0 1-.11 0h-1.23a.14.14 0 0 1-.11 0l-.08-.09-1.38-2.53q-.24-.44-.57-.44h-.41a.24.24 0 0 0-.14 0 .15.15 0 0 0-.07.13v2.79c0 .09 0 .13-.14.13h-1c-.1 0-.14 0-.14-.13v-6.32a.24.24 0 0 1 0-.1H114.08a2 2 0 0 1 .69.12 1.73 1.73 0 0 1 .56.33 1.56 1.56 0 0 1 .38.5 1.43 1.43 0 0 1 .14.63 1.7 1.7 0 0 1-.44 1.18 2.1 2.1 0 0 1-1.14.64c-.07 0-.08 0 0 .09a1.3 1.3 0 0 1 .16.17l.26.35 1.45 2.08zm-1.92-4.86a1.23 1.23 0 0 0-.31-.87 1.09 1.09 0 0 0-.83-.34h-.72a.31.31 0 0 0-.2.07.23.23 0 0 0-.09.18v2.21a.19.19 0 0 0 .07.14.21.21 0 0 0 .14.06h.37a1.84 1.84 0 0 0 1.16-.33 1.35 1.35 0 0 0 .41-1.12zM123.22 26.48v1.78s0 .08-.09.1a.64.64 0 0 1-.19 0h-.2a.25.25 0 0 1-.12 0l-3.53-4.84a.07.07 0 0 0-.08 0 .07.07 0 0 0 0 .07l.13 4.52a.42.42 0 0 1 0 .13h-.88c-.08 0-.12-.06-.12-.18l.12-4.68v-1.63c0-.09 0-.13.14-.13h.62a.22.22 0 0 1 .19.09l3.02 4.29a.12.12 0 0 0 .13.06.09.09 0 0 0 .07-.11l-.09-4.12a.39.39 0 0 1 0-.13H123.25a.42.42 0 0 1 0 .13zM130.77 28.12c.05.09 0 .13-.09.13h-1.18a.19.19 0 0 1-.2-.13l-.1-.28-.09-.24-.08-.23-.35-.94a.13.13 0 0 0-.13-.09h-2.05a.13.13 0 0 0-.13.09l-.54 1.7a.17.17 0 0 1-.18.12h-.86a.18.18 0 0 1 0-.12l2.47-6.42s.06-.06.15-.08h.54c.08 0 .13 0 .15.08l2.31 5.71.1.23.12.24zm-3.23-4.8h-.05-.06l-.85 2.45a.07.07 0 0 0 0 .08.09.09 0 0 0 .07 0h1.75c.07 0 .1 0 .07-.11zM136.25 22.22q0 .11-.14.1l-.63-.07h-1.05a.14.14 0 0 0-.11.05.21.21 0 0 0 0 .14v5.73c0 .09 0 .13-.14.13h-1c-.1 0-.14 0-.14-.13v-5.79a.21.21 0 0 0 0-.14.14.14 0 0 0-.11-.05h-1.05l-.63.07q-.13 0-.14-.1v-.49a.07.07 0 0 1 0-.09H136.3a.07.07 0 0 1 0 .09zM138.91 28.25h-1c-.1 0-.14 0-.14-.13v-6.37c0-.09 0-.13.14-.13h1c.09 0 .14 0 .14.13v6.36c.01.09-.05.14-.14.14zM146.7 24.9a5.63 5.63 0 0 1-.14 1.26 3.17 3.17 0 0 1-.49 1.12 2.58 2.58 0 0 1-.9.8 2.87 2.87 0 0 1-1.39.3 3 3 0 0 1-1.39-.28 2.35 2.35 0 0 1-.88-.76 3 3 0 0 1-.46-1.09 6.08 6.08 0 0 1-.13-1.28 5.63 5.63 0 0 1 .14-1.26 3.23 3.23 0 0 1 .48-1.12 2.53 2.53 0 0 1 .89-.8 2.88 2.88 0 0 1 1.39-.3 3.08 3.08 0 0 1 1.4.28 2.35 2.35 0 0 1 .89.76 3 3 0 0 1 .46 1.09 6.08 6.08 0 0 1 .13 1.28zm-1.34.18v-1a4.28 4.28 0 0 0-.19-1 1.91 1.91 0 0 0-.48-.79 1.22 1.22 0 0 0-.89-.31 1.17 1.17 0 0 0-.8.26 1.63 1.63 0 0 0-.46.68 3.58 3.58 0 0 0-.21.91v2a3.92 3.92 0 0 0 .19 1 2 2 0 0 0 .48.79 1.23 1.23 0 0 0 .9.31 1.18 1.18 0 0 0 .8-.26 1.64 1.64 0 0 0 .46-.68 3.58 3.58 0 0 0 .21-.91q-.01-.53-.01-1zM153.68 26.48v1.78s0 .08-.09.1a.64.64 0 0 1-.19 0h-.2a.25.25 0 0 1-.12 0l-3.53-4.84a.07.07 0 0 0-.08 0 .07.07 0 0 0 0 .07l.13 4.52a.42.42 0 0 1 0 .13h-.88c-.08 0-.12-.06-.12-.18l.12-4.68v-1.63c0-.09 0-.13.14-.13h.62a.22.22 0 0 1 .19.09l3.02 4.29a.12.12 0 0 0 .13.06.09.09 0 0 0 .07-.11l-.09-4.12a.39.39 0 0 1 0-.13H153.71a.42.42 0 0 1 0 .13zM161.23 28.12c.05.09 0 .13-.09.13H160a.19.19 0 0 1-.2-.13l-.1-.28-.09-.24-.08-.23-.35-.94a.13.13 0 0 0-.13-.09H157a.13.13 0 0 0-.13.09l-.54 1.7a.17.17 0 0 1-.18.12h-.86a.18.18 0 0 1 0-.12l2.47-6.42s.06-.06.15-.08h.54c.08 0 .13 0 .15.08l2.31 5.71.1.23.12.24zM158 23.31h-.05-.06l-.89 2.45a.07.07 0 0 0 0 .08.09.09 0 0 0 .07 0h1.75c.07 0 .1 0 .07-.11zM166.84 28.23h-3.94c-.1 0-.14 0-.14-.13v-6.35c0-.09 0-.13.14-.13h1c.09 0 .14 0 .14.13v5.67a.26.26 0 0 0 .26.26h1.26l.55-.07.63-.11a.21.21 0 0 1 .12 0 .09.09 0 0 1 0 .09v.56a.09.09 0 0 1-.02.08zM176.18 26.49a1.9 1.9 0 0 1-.18.87 1.57 1.57 0 0 1-.5.59 2.16 2.16 0 0 1-.76.33 4.14 4.14 0 0 1-1 .11 5.19 5.19 0 0 1-1.31-.14 8 8 0 0 1-1-.31.12.12 0 0 1-.07-.08.16.16 0 0 1 0-.11l.2-.74s0-.07.08-.07a.16.16 0 0 1 .11.05 2.91 2.91 0 0 0 .87.6 2.69 2.69 0 0 0 1.16.25 1.41 1.41 0 0 0 .88-.31 1.24 1.24 0 0 0 .3-.35.89.89 0 0 0 .12-.45.9.9 0 0 0-.28-.7 2.45 2.45 0 0 0-.68-.43q-.41-.18-.89-.34a4.53 4.53 0 0 1-.89-.4 2.28 2.28 0 0 1-.68-.62 1.66 1.66 0 0 1-.28-1 1.61 1.61 0 0 1 .53-1.29 2.18 2.18 0 0 1 1.47-.46 8.72 8.72 0 0 1 1.33.09q.57.09 1 .11a.07.07 0 0 1 .07 0 .18.18 0 0 1 0 .1l-.15.74c0 .09-.08.11-.18.05l-.36-.21a3 3 0 0 0-.45-.2 4.14 4.14 0 0 0-.55-.15 3.52 3.52 0 0 0-.68-.06 1.11 1.11 0 0 0-.67.22.72.72 0 0 0-.3.62.9.9 0 0 0 .28.7 2.38 2.38 0 0 0 .68.43q.41.18.89.34a4 4 0 0 1 .89.42 2.33 2.33 0 0 1 .69.67 1.93 1.93 0 0 1 .31 1.13zM182.64 22.22q0 .11-.14.1l-.63-.07h-1.05a.14.14 0 0 0-.11.05.21.21 0 0 0 0 .14v5.73c0 .09 0 .13-.14.13h-1c-.1 0-.14 0-.14-.13v-5.79a.21.21 0 0 0 0-.14.14.14 0 0 0-.11-.05h-1.05l-.63.07q-.13 0-.14-.1v-.49a.07.07 0 0 1 0-.09H182.69a.07.07 0 0 1 0 .09zM189.27 21.8v.78l-.09 3.65a2.15 2.15 0 0 1-.61 1.61 2.45 2.45 0 0 1-1.72.54 3 3 0 0 1-1.93-.54 2 2 0 0 1-.68-1.61v-4.47c0-.09 0-.13.14-.13h1c.1 0 .14 0 .14.13v4.39a1.91 1.91 0 0 0 .12.7 1.53 1.53 0 0 0 .32.51 1.28 1.28 0 0 0 .46.31 1.44 1.44 0 0 0 .55.11 1.56 1.56 0 0 0 .49-.08 1.33 1.33 0 0 0 .45-.26 1.25 1.25 0 0 0 .33-.46 1.81 1.81 0 0 0 .12-.71v-3.65-.27-.55a.39.39 0 0 1 0-.13h.96c-.09-.05-.05.01-.05.13zM196.52 24.81a4.24 4.24 0 0 1-.2 1.3 3.5 3.5 0 0 1-.58 1.11 2.84 2.84 0 0 1-.94.78 2.76 2.76 0 0 1-1.29.29h-2.17V21.8c0-.09 0-.13.14-.13h2.35a2.73 2.73 0 0 1 1 .2 2.47 2.47 0 0 1 .88.6 2.91 2.91 0 0 1 .61 1 4 4 0 0 1 .2 1.34zm-1.36-.07a4.6 4.6 0 0 0-.15-1.27 2.41 2.41 0 0 0-.39-.82 1.38 1.38 0 0 0-.54-.44 1.58 1.58 0 0 0-.61-.13h-.73a.17.17 0 0 0-.15.07.29.29 0 0 0 0 .17v4.93a.46.46 0 0 0 .21.44 1.21 1.21 0 0 0 .58.12 1.37 1.37 0 0 0 .94-.32 2.16 2.16 0 0 0 .56-.78 3.71 3.71 0 0 0 .26-1 8 8 0 0 0 .02-.97zM199.47 28.25h-1c-.1 0-.14 0-.14-.13v-6.37c0-.09 0-.13.14-.13h1c.09 0 .14 0 .14.13v6.36c0 .09-.05.14-.14.14zM206.11 28.23h-4.25c-.1 0-.14 0-.14-.13v-6.35c0-.09 0-.13.14-.13h4.12a.09.09 0 0 1 0 .09v.52a.09.09 0 0 1 0 .09.21.21 0 0 1-.12 0l-.66-.08-.58-.06H203.23a.26.26 0 0 0-.19.07.24.24 0 0 0-.08.18v2a.07.07 0 0 0 .08.08l2-.06c.07 0 .11 0 .11.08v.52c0 .05 0 .08-.11.08l-2-.05a.07.07 0 0 0-.08.08v2.25a.26.26 0 0 0 .26.26H204.63l.62-.07.72-.11a.2.2 0 0 1 .12 0 .09.09 0 0 1 0 .09v.56a.09.09 0 0 1 .02.09zM212.36 26.49a1.9 1.9 0 0 1-.18.87 1.57 1.57 0 0 1-.5.59 2.16 2.16 0 0 1-.76.33 4.14 4.14 0 0 1-1 .11 5.19 5.19 0 0 1-1.31-.14 8 8 0 0 1-1-.31.12.12 0 0 1-.07-.08.16.16 0 0 1 0-.11l.2-.74s0-.07.08-.07a.16.16 0 0 1 .18.06 2.91 2.91 0 0 0 .87.6 2.69 2.69 0 0 0 1.16.25 1.41 1.41 0 0 0 .88-.31 1.24 1.24 0 0 0 .3-.35.89.89 0 0 0 .12-.45.9.9 0 0 0-.28-.7 2.45 2.45 0 0 0-.68-.43q-.41-.18-.89-.34a4.53 4.53 0 0 1-.89-.4 2.28 2.28 0 0 1-.68-.62 1.66 1.66 0 0 1-.28-1 1.61 1.61 0 0 1 .53-1.29 2.18 2.18 0 0 1 1.47-.46 8.72 8.72 0 0 1 1.33.09q.57.09 1 .11a.07.07 0 0 1 .07 0 .18.18 0 0 1 0 .1l-.15.74c0 .09-.08.11-.18.05l-.36-.21a3 3 0 0 0-.45-.2 4.14 4.14 0 0 0-.55-.15 3.52 3.52 0 0 0-.68-.06 1.11 1.11 0 0 0-.67.22.72.72 0 0 0-.3.62.9.9 0 0 0 .28.7 2.38 2.38 0 0 0 .68.43q.41.18.89.34a4 4 0 0 1 .89.42 2.33 2.33 0 0 1 .69.67 1.93 1.93 0 0 1 .24 1.12zM243.54 14.71a2.73 2.73 0 0 1-.93.57 3.33 3.33 0 0 1-1.19.21 3.57 3.57 0 0 1-1.09-.17 2.58 2.58 0 0 1-1-.54 2.72 2.72 0 0 1-.68-1 3.94 3.94 0 0 1-.26-1.52 3.43 3.43 0 0 1 .24-1.31 2.93 2.93 0 0 1 .65-1 2.85 2.85 0 0 1 .95-.62 3 3 0 0 1 1.12-.21h1.98s.05.06 0 .13l-.08.6a.17.17 0 0 1-.08.13.16.16 0 0 1-.14 0 7.61 7.61 0 0 0-.83-.21 5 5 0 0 0-.92-.07 1.51 1.51 0 0 0-1.31.64 3.29 3.29 0 0 0-.46 1.9 4 4 0 0 0 .17 1.25 2.14 2.14 0 0 0 .46.81 1.65 1.65 0 0 0 .68.44 2.65 2.65 0 0 0 .84.13 1.72 1.72 0 0 0 .73-.18 3.26 3.26 0 0 0 .66-.4h.08a.08.08 0 0 1 .09 0l.21.26a.1.1 0 0 1 .11.16zM250.37 15.36h-.66c-.13 0-.2-.05-.2-.16v-2.7h-3.08v2.7c0 .1-.07.16-.19.16h-.66c-.12 0-.18-.05-.18-.16V9.28c0-.1.06-.16.18-.16h.66c.13 0 .19.05.19.16v2.66h3.08V9.28c0-.11.07-.16.2-.16h.66c.12 0 .18.05.18.16v5.92c0 .11-.06.16-.18.16zM253.73 15.36h-.66c-.12 0-.18-.05-.18-.16V9.28c0-.1.06-.16.18-.16h.66c.13 0 .2.05.2.16v5.92c0 .11-.07.16-.2.16zM261.42 13.68v1.65a.15.15 0 0 1 0 .12.24.24 0 0 1-.1.05.18.18 0 0 1-.11 0h-.08l-4-4.76.14 4.47a.29.29 0 0 1 0 .13.14.14 0 0 1-.14.06h-.58c-.07 0-.11 0-.13-.06a.36.36 0 0 1 0-.13l.13-4.37V9.32c0-.1.07-.16.2-.16h.42a.24.24 0 0 1 .1.08l3.56 4.21s.07.05.1 0 0 0 0-.06l-.12-4.1a.36.36 0 0 1 0-.13s.06-.07.13-.07h.55c.07 0 .11 0 .13.07a.36.36 0 0 1 0 .13zM269.24 15.18v.14a.19.19 0 0 1-.14 0h-.88a.24.24 0 0 1-.23-.14l-.29-.7-.35-.87a.12.12 0 0 0-.1-.07h-2.48a.09.09 0 0 0-.09.07l-.57 1.57a.2.2 0 0 1-.21.14h-.57c-.07 0-.11 0-.13-.06a.2.2 0 0 1 0-.14l2.56-6a.17.17 0 0 1 .13-.09h.22a.77.77 0 0 1 .23 0 .21.21 0 0 1 .14.08l2.39 5.3a1.59 1.59 0 0 0 .1.22l.13.22a2.26 2.26 0 0 0 .14.33zM266 10.32l-1 2.72v.05h2.16zM278.26 10.88a1.59 1.59 0 0 1-.18.73 1.61 1.61 0 0 1-.53.59 2.87 2.87 0 0 1-.89.39 4.83 4.83 0 0 1-1.25.14h-.73a.22.22 0 0 0-.12 0 .11.11 0 0 0-.06.09v2.38c0 .1-.07.16-.2.16h-.66c-.12 0-.18-.05-.18-.16V9.28c0-.1.06-.16.18-.16h2.25a4 4 0 0 1 .85.09 2.32 2.32 0 0 1 .75.3 1.66 1.66 0 0 1 .54.55 1.54 1.54 0 0 1 .23.82zm-1.11 0a1.09 1.09 0 0 0-.4-.94 2.38 2.38 0 0 0-1.38-.3h-.62a.27.27 0 0 0-.18.06.17.17 0 0 0-.07.14v2.31a.13.13 0 0 0 .06.1.2.2 0 0 0 .12 0h.58a4.48 4.48 0 0 0 .75-.06 1.59 1.59 0 0 0 .6-.22 1.14 1.14 0 0 0 .4-.44 1.52 1.52 0 0 0 .14-.68zM285.82 12.21a4.69 4.69 0 0 1-.16 1.21 3 3 0 0 1-.51 1 2.57 2.57 0 0 1-.91.74 3.07 3.07 0 0 1-1.38.28 3.31 3.31 0 0 1-1.39-.26 2.33 2.33 0 0 1-.9-.71 2.81 2.81 0 0 1-.48-1 5.13 5.13 0 0 1-.14-1.23 4.65 4.65 0 0 1 .16-1.21 3 3 0 0 1 .51-1 2.56 2.56 0 0 1 .91-.74 3.06 3.06 0 0 1 1.38-.29 3.25 3.25 0 0 1 1.38.26 2.38 2.38 0 0 1 .9.71 2.75 2.75 0 0 1 .49 1 5.1 5.1 0 0 1 .14 1.24zm-1.13.16a9.12 9.12 0 0 0-.05-.94 3.19 3.19 0 0 0-.24-.94 1.84 1.84 0 0 0-.55-.72 1.58 1.58 0 0 0-1-.29 1.55 1.55 0 0 0-.9.24 1.69 1.69 0 0 0-.54.63 2.7 2.7 0 0 0-.26.85 6.69 6.69 0 0 0-.06.91 9 9 0 0 0 .05.93 3.15 3.15 0 0 0 .24.94 1.81 1.81 0 0 0 .56.72 1.6 1.6 0 0 0 1 .29 1.54 1.54 0 0 0 .9-.24 1.61 1.61 0 0 0 .53-.63 2.8 2.8 0 0 0 .25-.85 6.55 6.55 0 0 0 .07-.89zM293.89 15.36s-.07.06-.16.08H293.32c-.08 0-.13 0-.14-.08l-1.65-4.15-1.68 4.15s-.07.06-.14.08h-.4c-.08 0-.13 0-.15-.08l-2-6.07c0-.11 0-.17.16-.17h.78a.2.2 0 0 1 .22.16l1.22 4.72 1.75-4.52a.14.14 0 0 1 .1-.08h.31a.14.14 0 0 1 .1.08l1.79 4.52 1.27-4.67.06-.12a.15.15 0 0 1 .14-.05h.53a.12.12 0 0 1 .13.09.21.21 0 0 1 0 .15zM301.76 15.36h-4.05c-.12 0-.18-.05-.18-.16V9.28c0-.1.06-.16.18-.16h3.92a.34.34 0 0 1 .16 0 .11.11 0 0 1 .07.11v.48a.11.11 0 0 1-.07.11.26.26 0 0 1-.16 0l-.69-.08-.59-.05h-1.53a.24.24 0 0 0-.17.06.18.18 0 0 0-.07.14v1.87l2.17-.05h.1a.08.08 0 0 1 .05.08v.48a.09.09 0 0 1-.05.09h-.1l-2.17-.05v2.09a.19.19 0 0 0 .07.15.24.24 0 0 0 .17.06h1.55l.64-.07.75-.1a.31.31 0 0 1 .14 0s.07.05.07.12v.52c.03.23-.07.28-.21.28zM309.13 15.18v.12a.2.2 0 0 1-.16.06h-.87a.23.23 0 0 1-.18-.09v-.05l-1.61-2.35q-.27-.39-.55-.39H305a.22.22 0 0 0-.12 0 .11.11 0 0 0-.06.09v2.6c0 .1-.07.16-.2.16H304c-.12 0-.18-.05-.18-.16V9.28a.28.28 0 0 1 0-.11h2.88a2.27 2.27 0 0 1 .71.11 1.9 1.9 0 0 1 .59.31 1.55 1.55 0 0 1 .4.47 1.22 1.22 0 0 1 .15.6 1.53 1.53 0 0 1-.46 1.12 2.24 2.24 0 0 1-1.19.6 2.82 2.82 0 0 1 .44.49l1.5 1.94zm-1.7-4.49a1 1 0 0 0-.32-.77 1.16 1.16 0 0 0-.84-.3h-1.2a.29.29 0 0 0-.18.06.17.17 0 0 0-.08.14v2a.13.13 0 0 0 .06.1.2.2 0 0 0 .12 0h.82a2.16 2.16 0 0 0 1.19-.22 1.11 1.11 0 0 0 .43-1.01zM243.48 23.76a1.58 1.58 0 0 1-.71 1.33 2.87 2.87 0 0 1-.89.39 4.88 4.88 0 0 1-1.25.14h-.73a.22.22 0 0 0-.12 0 .11.11 0 0 0-.06.09v2.34c0 .1-.07.16-.19.16h-.66c-.12 0-.18-.05-.18-.16v-5.89c0-.1.06-.16.18-.16h2.25a4.05 4.05 0 0 1 .85.09 2.36 2.36 0 0 1 .75.3 1.67 1.67 0 0 1 .54.55 1.53 1.53 0 0 1 .22.82zm-1.1 0a1.09 1.09 0 0 0-.4-.94 2.38 2.38 0 0 0-1.38-.3h-.6a.27.27 0 0 0-.17.06.17.17 0 0 0-.07.14V25a.13.13 0 0 0 .06.1.2.2 0 0 0 .12 0h.58a4.45 4.45 0 0 0 .75-.06 1.59 1.59 0 0 0 .6-.22 1.14 1.14 0 0 0 .4-.44 1.52 1.52 0 0 0 .1-.64zM250.71 28.07v.12a.2.2 0 0 1-.16.06h-.87a.23.23 0 0 1-.18-.09v-.05l-1.61-2.35q-.27-.39-.55-.39h-.77a.22.22 0 0 0-.12 0 .11.11 0 0 0-.06.09v2.6c0 .1-.06.16-.19.16h-.66c-.12 0-.18-.05-.18-.16v-5.9a.27.27 0 0 1 0-.11h2.88a2.29 2.29 0 0 1 .71.11 1.9 1.9 0 0 1 .59.31 1.57 1.57 0 0 1 .4.47 1.22 1.22 0 0 1 .15.6 1.53 1.53 0 0 1-.46 1.12 2.24 2.24 0 0 1-1.19.6 2.83 2.83 0 0 1 .44.49l1.5 1.94zM249 23.58a1 1 0 0 0-.32-.77 1.17 1.17 0 0 0-.84-.3h-1.2a.3.3 0 0 0-.18.06.17.17 0 0 0-.08.14v2a.12.12 0 0 0 .06.1.2.2 0 0 0 .12 0h.82a2.16 2.16 0 0 0 1.19-.28 1.11 1.11 0 0 0 .43-.95zM257.89 25.1a4.7 4.7 0 0 1-.16 1.21 3 3 0 0 1-.51 1 2.56 2.56 0 0 1-.91.74 3.06 3.06 0 0 1-1.38.28 3.3 3.3 0 0 1-1.39-.26 2.33 2.33 0 0 1-.9-.71 2.82 2.82 0 0 1-.48-1 5.09 5.09 0 0 1-.14-1.23 4.65 4.65 0 0 1 .16-1.21 3 3 0 0 1 .51-1 2.56 2.56 0 0 1 .91-.74 3.07 3.07 0 0 1 1.38-.28 3.27 3.27 0 0 1 1.38.26 2.4 2.4 0 0 1 .9.71 2.75 2.75 0 0 1 .49 1 5.12 5.12 0 0 1 .14 1.23zm-1.13.16q0-.43-.05-.94a3.23 3.23 0 0 0-.24-.95 1.84 1.84 0 0 0-.55-.72 1.58 1.58 0 0 0-1-.29 1.54 1.54 0 0 0-.9.24 1.67 1.67 0 0 0-.54.63 2.7 2.7 0 0 0-.26.85 6.71 6.71 0 0 0-.06.91 9 9 0 0 0 .05.93 3.15 3.15 0 0 0 .24.94 1.8 1.8 0 0 0 .56.72 1.61 1.61 0 0 0 1 .29 1.54 1.54 0 0 0 .9-.24 1.62 1.62 0 0 0 .53-.62 2.78 2.78 0 0 0 .25-.85 6.57 6.57 0 0 0 .07-.9zM262.46 25.14v1.57a1.44 1.44 0 0 1-.47 1.09 1.9 1.9 0 0 1-1.35.44h-1.23a.35.35 0 0 1-.16 0 .09.09 0 0 1-.05-.11l.05-.57a.2.2 0 0 1 .08-.13.11.11 0 0 1 .15 0 1.47 1.47 0 0 0 .53.23 2.71 2.71 0 0 0 .61.07.75.75 0 0 0 .29-.06.71.71 0 0 0 .26-.19 1 1 0 0 0 .19-.32 1.32 1.32 0 0 0 .07-.46v-4.54c0-.1.06-.16.18-.16h.66c.13 0 .2.05.2.16zM269 28.25h-4c-.12 0-.18-.05-.18-.16v-5.93c0-.1.06-.16.18-.16h3.92a.33.33 0 0 1 .16 0 .11.11 0 0 1 .07.11v.48a.11.11 0 0 1-.07.11.25.25 0 0 1-.16 0l-.69-.08-.59-.05h-1.53a.25.25 0 0 0-.17.06.18.18 0 0 0-.07.14v1.87l2.17-.05h.1a.08.08 0 0 1 .05.08v.48a.09.09 0 0 1-.05.09h-.1l-2.17-.05v2.09a.19.19 0 0 0 .07.15.24.24 0 0 0 .17.06h1.55l.64-.07.75-.1a.29.29 0 0 1 .14 0s.07.05.07.12v.52c-.02.24-.09.29-.26.29zM275.73 27.6a2.72 2.72 0 0 1-.93.57 3.33 3.33 0 0 1-1.19.21 3.61 3.61 0 0 1-1.09-.17 2.6 2.6 0 0 1-1-.55 2.71 2.71 0 0 1-.68-1 4 4 0 0 1-.26-1.52 3.43 3.43 0 0 1 .24-1.31 2.92 2.92 0 0 1 .65-1 2.82 2.82 0 0 1 .95-.62 3 3 0 0 1 1.13-.21h1.98s.05.05 0 .13l-.08.59a.17.17 0 0 1-.08.13.16.16 0 0 1-.14 0 7.69 7.69 0 0 0-.83-.21 4.93 4.93 0 0 0-.92-.07 1.51 1.51 0 0 0-1.31.64 3.29 3.29 0 0 0-.46 1.9 4 4 0 0 0 .17 1.25 2.14 2.14 0 0 0 .46.81 1.67 1.67 0 0 0 .68.44 2.67 2.67 0 0 0 .84.13 1.72 1.72 0 0 0 .73-.18 3.16 3.16 0 0 0 .66-.4h.08a.08.08 0 0 1 .09 0l.21.26a.09.09 0 0 1 .1.18zM282.38 22.61c0 .1-.07.15-.18.13l-.69-.07h-1.1a.13.13 0 0 0-.08 0 .15.15 0 0 0 0 .11v5.33c0 .1-.06.16-.18.16h-.66c-.12 0-.18-.05-.18-.16v-5.36a.13.13 0 0 0 0-.1.13.13 0 0 0-.08 0h-1.12l-.68.07c-.11 0-.17 0-.18-.13v-.46a.09.09 0 0 1 .06-.11.37.37 0 0 1 .16 0h4.88a.38.38 0 0 1 .16 0 .09.09 0 0 1 .06.11zM16.48 7.31c.86.13 2 .56 2.51.63.17 0 .5.23.5 1s.16 2.15.23 2.87-.23 1.09-.5 1.09-.36-.36-.53-.86a5.13 5.13 0 0 0-1.35-2.48 8.27 8.27 0 0 0-5.28-1.72c-5.32 0-8.72 4.39-8.72 9.38a12 12 0 0 0 1.16 5.45 9.53 9.53 0 0 0 8.35 5.28 7.58 7.58 0 0 0 3.6-.89 7.38 7.38 0 0 0 3.07-3.2c.43-.69.56-.86.69-.86.33 0 .36.73.3 1.09a11.92 11.92 0 0 1-1.32 3.34 2.64 2.64 0 0 1-1 .86 20 20 0 0 1-6 .92 12.79 12.79 0 0 1-9.38-3.86A11.15 11.15 0 0 1 0 17.74a11 11 0 0 1 3.63-7.92 13.62 13.62 0 0 1 8.95-3 18.33 18.33 0 0 1 3.9.49zM34.67 7.37c.2.07.4.56.4.63.07.63.33 2.54.33 2.67 0 .56 0 .89-.23.89a.92.92 0 0 1-.79-.69 5.31 5.31 0 0 0-1.63-2.37 3.76 3.76 0 0 0-2.34-.76 3.71 3.71 0 0 0-3.8 3.86c0 2.34 1.68 3.37 4.59 5.32 2.54 1.72 4.56 3.43 4.56 6.41A5.72 5.72 0 0 1 33 28a9.35 9.35 0 0 1-4.49 1.19 13.26 13.26 0 0 1-4.33-.86 2.46 2.46 0 0 1-.76-1.06c-.17-1.12-.5-2.58-.5-3.1 0-.13.33-.63.46-.63s.76.86 1.22 1.88A5.12 5.12 0 0 0 29 28a3.85 3.85 0 0 0 4-4c0-1.39-.66-2.87-4.13-5.08C26 17.15 24 15.23 24 12.43a5.42 5.42 0 0 1 1.82-4 7 7 0 0 1 4.89-1.62 20.33 20.33 0 0 1 3.96.56zM41.73 10.61c-.1-1.52-.1-2-1.95-2.34-.73-.13-.92-.36-.92-.59s.36-.4.83-.4c.86 0 2.51.1 3.6.1 1.62 0 2.38-.1 3.53-.1.53 0 .83.13.83.4s-.33.46-.86.56c-1.92.4-1.88 1.22-2 2.11a94.68 94.68 0 0 0-.2 9.71c0 1.82 0 3.86.1 4.92.1 1.78.26 2.41 2.41 2.84.59.1.86.33.86.56s-.5.43-.89.43c-1.68 0-4-.2-4.92-.2s-1.29.07-2.51.07c-.63 0-.86-.23-.86-.46s.33-.43 1-.56c1.65-.36 1.78-.86 1.91-2.41.1-1.16.16-4.59.16-7.4-.02-2.06-.05-6.15-.12-7.24zM62.07 7.37c.2.07.4.56.4.63.07.63.33 2.54.33 2.67 0 .56 0 .89-.23.89a.92.92 0 0 1-.79-.69 5.32 5.32 0 0 0-1.63-2.37 3.76 3.76 0 0 0-2.34-.76A3.71 3.71 0 0 0 54 11.6c0 2.34 1.68 3.37 4.59 5.32 2.54 1.72 4.56 3.43 4.56 6.41a5.72 5.72 0 0 1-2.7 4.67A9.35 9.35 0 0 1 56 29.17a13.27 13.27 0 0 1-4.33-.86 2.46 2.46 0 0 1-.76-1.06c-.17-1.12-.5-2.58-.5-3.1 0-.13.33-.63.46-.63s.76.86 1.22 1.88a5.12 5.12 0 0 0 4.26 2.6 3.85 3.85 0 0 0 4-4c0-1.39-.66-2.87-4.13-5.08-2.81-1.82-4.79-3.73-4.79-6.54a5.42 5.42 0 0 1 1.82-4 7 7 0 0 1 4.89-1.62 20.31 20.31 0 0 1 3.93.61z"/></svg>