<svg id="Layer_1" xmlns="http://www.w3.org/2000/svg" xmlns:xlink="http://www.w3.org/1999/xlink" viewBox="0 0 50 50.1"><style>.st0{fill:#FFFFFF;} .st1{clip-path:url(#SVGID_2_);} .st2{clip-path:url(#SVGID_4_);} .st3{clip-path:url(#SVGID_6_);} .st4{fill:#EF4237;} .st5{clip-path:url(#SVGID_8_);} .st6{clip-path:url(#SVGID_10_);}</style><title>favicon</title><path class="st0" d="M8.7 5.6H41V46H8.7z"/><defs><path id="SVGID_1_" d="M50 .1H0v50h50z"/></defs><clipPath id="SVGID_2_"><use xlink:href="#SVGID_1_" overflow="visible"/></clipPath><g class="st1"><defs><path id="SVGID_3_" d="M0 50.1h50V.1H0v50zm36-36.5h-2.3l-.4-1.9H16.8v16.1H20V17v-.1-.1c0-.8.7-1.5 1.5-1.5h13c.8 0 1.5.6 1.5 1.4v12.7c0 .8-.7 1.5-1.5 1.5H23v10.4l1.9.4V44h-6.8v-2.3l1.9-.4V30.7h-4.7c-.8 0-1.5-.7-1.5-1.5v-19c0-.8.7-1.5 1.5-1.5h18l.4-1.9H36v6.8z"/></defs><clipPath id="SVGID_4_"><use xlink:href="#SVGID_3_" overflow="visible"/></clipPath><g class="st2"><defs><path id="SVGID_5_" d="M0 51.3l50-.1V.1L0-.1z"/></defs><clipPath id="SVGID_6_"><use xlink:href="#SVGID_5_" overflow="visible"/></clipPath><path class="st3 st4" d="M-7.4-12.1h65.1v75.8H-7.4z"/></g><g><defs><path id="SVGID_7_" d="M23 18h10v9.6H23z"/></defs><clipPath id="SVGID_8_"><use xlink:href="#SVGID_7_" overflow="visible"/></clipPath><g class="st5"><defs><path id="SVGID_9_" d="M-.1-5.9h49.9v62H-.1z"/></defs><clipPath id="SVGID_10_"><use xlink:href="#SVGID_9_" overflow="visible"/></clipPath><path class="st6 st4" d="M15.5 10.4h25.2v24.8H15.5z"/></g></g></g></svg>